<svg xmlns="http://www.w3.org/2000/svg" width="600" height="300" style="width:100%;height:100%;transform:translate3d(0,0,0);content-visibility:visible" viewBox="0 0 600 300"><defs><path id="c" d="M551-80V80H-547V-80z" style="display:block" transform="matrix(.46 0 0 1.07 294.54 146.79)"/><path id="b" d="M551-80V80H-547V-80z" style="display:block" transform="matrix(.46 0 0 1.07 294.54 146.79)"/><path id="a" d="M551-80V80H-547V-80z" style="display:block" transform="matrix(.46 0 0 1.07 294.54 146.79)"/><mask id="g" mask-type="alpha"><use xmlns:ns1="http://www.w3.org/1999/xlink" ns1:href="#a"/></mask><mask id="f" mask-type="alpha"><use xmlns:ns2="http://www.w3.org/1999/xlink" ns2:href="#b"/></mask><mask id="e" mask-type="alpha"><use xmlns:ns3="http://www.w3.org/1999/xlink" ns3:href="#c"/></mask><clipPath id="d"><path d="M0 0h600v300H0z"/></clipPath></defs><g clip-path="url(#d)"><g mask="url(#e)" style="display:block"><path fill="#712cf6" d="M387.611 1424.15h33.4q.598-7.476 4.3-12.54 3.698-5.059 11.3-5.06 6.998.001 11 4.4 4 4.402 4 12.32c0 6.6-2.1 11.186-6.3 13.75q-6.3 3.851-16.5 3.85h-6.4v30.58h6.4q13.396.001 19.5 4.73 6.1 4.732 6.1 15.29 0 8.141-4.3 13.09-4.302 4.95-12.1 4.95-9.2 0-14-5.61-4.802-5.608-5-15.29h-33.2q.798 26.183 15.1 39.16 14.298 12.982 38.3 12.98 14.998 0 25.9-5.94 10.9-5.939 16.6-16.39 5.7-10.446 5.7-24.09 0-15.178-6.6-24.86-6.6-9.678-18-13.86v-.88q8.8-3.299 15.4-12.43 6.6-9.128 6.6-23.65 0-12.319-5.5-22.22-5.504-9.898-16.2-15.62-10.7-5.719-25.7-5.72-22.602.002-35.8 12.76-13.202 12.762-14 36.3M387.611 1161.752h33.4q.598-7.476 4.3-12.54 3.698-5.059 11.3-5.06 6.998.001 11 4.4 4 4.402 4 12.32c0 6.6-2.1 11.186-6.3 13.75q-6.3 3.851-16.5 3.85h-6.4v30.58h6.4q13.396.001 19.5 4.73 6.1 4.732 6.1 15.29 0 8.141-4.3 13.09-4.302 4.95-12.1 4.95-9.2 0-14-5.61-4.802-5.608-5-15.29h-33.2q.798 26.183 15.1 39.16 14.298 12.982 38.3 12.98 14.998 0 25.9-5.94 10.9-5.939 16.6-16.39 5.7-10.446 5.7-24.09 0-15.178-6.6-24.86-6.6-9.678-18-13.86v-.88q8.8-3.299 15.4-12.43 6.6-9.128 6.6-23.65 0-12.319-5.5-22.22-5.504-9.898-16.2-15.62-10.7-5.719-25.7-5.72-22.602.002-35.8 12.76-13.202 12.762-14 36.3M387.611 899.354h33.4q.598-7.476 4.3-12.54 3.698-5.059 11.3-5.06 6.998.001 11 4.4c2.666 2.936 4 7.04 4 12.32q0 9.902-6.3 13.75-6.3 3.851-16.5 3.85h-6.4v30.58h6.4q13.396.001 19.5 4.73 6.1 4.732 6.1 15.29 0 8.141-4.3 13.09-4.302 4.95-12.1 4.95-9.2 0-14-5.61c-3.2-3.74-4.869-8.834-5-15.29h-33.2q.798 26.183 15.1 39.16 14.298 12.982 38.3 12.98 14.998 0 25.9-5.94 10.9-5.939 16.6-16.39 5.7-10.446 5.7-24.09c0-10.12-2.2-18.404-6.6-24.86q-6.6-9.678-18-13.86v-.88q8.8-3.299 15.4-12.43 6.6-9.128 6.6-23.65 0-12.319-5.5-22.22c-3.669-6.6-9.069-11.804-16.2-15.62q-10.7-5.719-25.7-5.72c-15.069 0-27 4.256-35.8 12.76q-13.202 12.762-14 36.3M387.611 636.956h33.4q.598-7.476 4.3-12.54 3.698-5.059 11.3-5.06 6.998.001 11 4.4c2.666 2.936 4 7.04 4 12.32q0 9.902-6.3 13.75-6.3 3.851-16.5 3.85h-6.4v30.58h6.4q13.396.001 19.5 4.73 6.1 4.732 6.1 15.29 0 8.141-4.3 13.09-4.302 4.95-12.1 4.95-9.2 0-14-5.61c-3.2-3.74-4.869-8.834-5-15.29h-33.2q.798 26.183 15.1 39.16 14.298 12.982 38.3 12.98 14.998 0 25.9-5.94 10.9-5.939 16.6-16.39 5.7-10.446 5.7-24.09c0-10.12-2.2-18.404-6.6-24.86q-6.6-9.678-18-13.86v-.88q8.8-3.299 15.4-12.43c4.4-6.084 6.6-13.97 6.6-23.65q0-12.319-5.5-22.22c-3.669-6.6-9.069-11.804-16.2-15.62q-10.7-5.719-25.7-5.72c-15.069 0-27 4.256-35.8 12.76q-13.202 12.762-14 36.3M387.611 374.558h33.4q.598-7.476 4.3-12.54 3.698-5.059 11.3-5.06 6.998.001 11 4.4 4 4.402 4 12.32 0 9.902-6.3 13.75-6.3 3.851-16.5 3.85h-6.4v30.58h6.4q13.396.001 19.5 4.73c4.066 3.156 6.1 8.25 6.1 15.29q0 8.141-4.3 13.09-4.302 4.95-12.1 4.95-9.2 0-14-5.61c-3.2-3.74-4.869-8.834-5-15.29h-33.2q.798 26.183 15.1 39.16c9.531 8.656 22.3 12.98 38.3 12.98q14.998 0 25.9-5.94 10.9-5.939 16.6-16.39 5.7-10.446 5.7-24.09c0-10.12-2.2-18.404-6.6-24.86q-6.6-9.678-18-13.86v-.88q8.8-3.299 15.4-12.43c4.4-6.084 6.6-13.97 6.6-23.65q0-12.319-5.5-22.22c-3.669-6.6-9.069-11.804-16.2-15.62q-10.7-5.719-25.7-5.72-22.602.002-35.8 12.76-13.202 12.762-14 36.3M387.611 112.16h33.4q.598-7.476 4.3-12.54 3.698-5.059 11.3-5.06 6.998.001 11 4.4 4 4.402 4 12.32c0 6.6-2.1 11.186-6.3 13.75q-6.3 3.851-16.5 3.85h-6.4v30.58h6.4q13.396.001 19.5 4.73 6.1 4.732 6.1 15.29 0 8.141-4.3 13.09-4.302 4.95-12.1 4.95-9.2 0-14-5.61c-3.2-3.74-4.869-8.834-5-15.29h-33.2q.798 26.183 15.1 39.16c9.531 8.656 22.3 12.98 38.3 12.98q14.998 0 25.9-5.94 10.9-5.939 16.6-16.39 5.7-10.446 5.7-24.09c0-10.12-2.2-18.404-6.6-24.86q-6.6-9.678-18-13.86v-.88q8.8-3.299 15.4-12.43 6.6-9.128 6.6-23.65 0-12.319-5.5-22.22-5.504-9.898-16.2-15.62-10.7-5.719-25.7-5.72-22.602.002-35.8 12.76-13.202 12.762-14 36.3"/></g><g mask="url(#f)" style="display:block"><path fill="#712cf6" d="M329.038 1456.93q0 14.964-1.6 24.75-1.602 9.792-6.5 15.84c-3.269 4.036-8.1 6.05-14.5 6.05s-11.234-2.014-14.5-6.05q-4.902-6.048-6.5-15.84-1.602-9.786-1.6-24.75 0-22.217 4.4-34.21 4.398-11.989 18.2-11.99 13.8.001 18.2 11.99 4.398 11.993 4.4 34.21m-78.8 0q-.002 38.28 13.3 60.06 13.299 21.78 42.9 21.78 29.596 0 42.9-21.78 13.3-21.78 13.3-60.06 0-37.838-13.3-59.62-13.303-21.78-42.9-21.78-29.601 0-42.9 21.78c-8.869 14.52-13.3 34.396-13.3 59.62M329.038 1194.532q0 14.964-1.6 24.75-1.602 9.792-6.5 15.84c-3.269 4.036-8.1 6.05-14.5 6.05s-11.234-2.014-14.5-6.05q-4.902-6.048-6.5-15.84-1.602-9.786-1.6-24.75 0-22.217 4.4-34.21 4.398-11.989 18.2-11.99 13.8.001 18.2 11.99 4.398 11.993 4.4 34.21m-78.8 0q-.002 38.28 13.3 60.06 13.299 21.78 42.9 21.78 29.596 0 42.9-21.78 13.3-21.78 13.3-60.06c0-25.224-4.434-45.1-13.3-59.62q-13.303-21.78-42.9-21.78-29.601 0-42.9 21.78c-8.869 14.52-13.3 34.396-13.3 59.62M329.038 932.134q0 14.964-1.6 24.75-1.602 9.792-6.5 15.84c-3.269 4.036-8.1 6.05-14.5 6.05s-11.234-2.014-14.5-6.05q-4.902-6.048-6.5-15.84-1.602-9.786-1.6-24.75 0-22.217 4.4-34.21 4.398-11.989 18.2-11.99 13.8.001 18.2 11.99 4.398 11.993 4.4 34.21m-78.8 0q-.002 38.28 13.3 60.06 13.299 21.78 42.9 21.78 29.596 0 42.9-21.78 13.3-21.78 13.3-60.06c0-25.224-4.434-45.1-13.3-59.62q-13.303-21.78-42.9-21.78-29.601 0-42.9 21.78c-8.869 14.52-13.3 34.396-13.3 59.62M329.038 669.736q0 14.964-1.6 24.75-1.602 9.792-6.5 15.84c-3.269 4.036-8.1 6.05-14.5 6.05s-11.234-2.014-14.5-6.05q-4.902-6.048-6.5-15.84-1.602-9.786-1.6-24.75 0-22.217 4.4-34.21 4.398-11.989 18.2-11.99 13.8.001 18.2 11.99 4.398 11.993 4.4 34.21m-78.8 0q-.002 38.28 13.3 60.06 13.299 21.78 42.9 21.78 29.596 0 42.9-21.78 13.3-21.78 13.3-60.06c0-25.224-4.434-45.1-13.3-59.62q-13.303-21.78-42.9-21.78-29.601 0-42.9 21.78-13.302 21.782-13.3 59.62M329.038 407.338q0 14.964-1.6 24.75-1.602 9.792-6.5 15.84-4.902 6.052-14.5 6.05c-6.4 0-11.234-2.014-14.5-6.05q-4.902-6.048-6.5-15.84-1.602-9.786-1.6-24.75 0-22.217 4.4-34.21 4.398-11.989 18.2-11.99 13.8.001 18.2 11.99 4.398 11.993 4.4 34.21m-78.8 0q-.002 38.28 13.3 60.06 13.299 21.78 42.9 21.78 29.596 0 42.9-21.78 13.3-21.78 13.3-60.06c0-25.224-4.434-45.1-13.3-59.62q-13.303-21.78-42.9-21.78-29.601 0-42.9 21.78c-8.869 14.52-13.3 34.396-13.3 59.62M329.038 144.94q0 14.964-1.6 24.75-1.602 9.792-6.5 15.84-4.902 6.052-14.5 6.05-9.6.002-14.5-6.05-4.902-6.048-6.5-15.84-1.602-9.786-1.6-24.75 0-22.217 4.4-34.21 4.398-11.989 18.2-11.99 13.8.001 18.2 11.99 4.398 11.993 4.4 34.21m-78.8 0q-.002 38.28 13.3 60.06 13.299 21.78 42.9 21.78 29.596 0 42.9-21.78 13.3-21.78 13.3-60.06 0-37.838-13.3-59.62-13.303-21.78-42.9-21.78-29.601 0-42.9 21.78-13.302 21.782-13.3 59.62"/></g><g mask="url(#g)" style="display:block"><path fill="#712cf6" d="M176.053 1478.27h-33.6l33.6-55.88zm-2.4 32.56v28.6h34.2v-28.6h16.4v-32.56h-16.4v-97.24h-38.2l-63.2 99.44v30.36zM176.053 1215.872h-33.6l33.6-55.88zm-2.4 32.56v28.6h34.2v-28.6h16.4v-32.56h-16.4v-97.24h-38.2l-63.2 99.44v30.36zM176.053 953.474h-33.6l33.6-55.88zm-2.4 32.56v28.6h34.2v-28.6h16.4v-32.56h-16.4v-97.24h-38.2l-63.2 99.44v30.36zM176.053 691.076h-33.6l33.6-55.88zm-2.4 32.56v28.6h34.2v-28.6h16.4v-32.56h-16.4v-97.24h-38.2l-63.2 99.44v30.36zM176.053 428.678h-33.6l33.6-55.88zm-2.4 32.56v28.6h34.2v-28.6h16.4v-32.56h-16.4v-97.24h-38.2l-63.2 99.44v30.36zM176.053 166.28h-33.6l33.6-55.88zm-2.4 32.56v28.6h34.2v-28.6h16.4v-32.56h-16.4V69.04h-38.2l-63.2 99.44v30.36z"/></g></g></svg>