<svg xmlns="http://www.w3.org/2000/svg" viewBox="0 0 800 600"><path fill="#f8fafc" d="M0 0h800v600H0z"/><g stroke="#64748b" stroke-width="2" opacity=".3"><path fill="none" d="m120 180 20-20 20 20-20 20h-20l-20-20 20-20Z"/><path d="M130 170v20m-10-10h20"/><path fill="none" d="m680 480 20-20 20 20-20 20h-20l-20-20 20-20Z"/><path d="M690 470v20m-10-10h20"/></g><path fill="none" stroke="#10b981" stroke-width="8" d="M200 400q100-50 200-20t200-10" opacity=".6"/><path fill="none" stroke="#34d399" stroke-width="6" d="M150 500q100-20 200-10t200-5" opacity=".4"/><rect width="280" height="12" x="450" y="480" fill="#e2e8f0" rx="6"/><rect width="260" height="8" x="460" y="492" fill="#cbd5e1" rx="4"/><rect width="20" height="60" x="580" y="420" fill="#475569" rx="10"/><rect width="40" height="10" x="570" y="470" fill="#64748b" rx="5"/><rect width="140" height="85" x="520" y="350" fill="#1e293b" rx="8"/><rect width="120" height="65" x="530" y="360" fill="#0f172a" rx="4"/><rect width="30" height="4" x="535" y="365" fill="#64748b" rx="2"/><rect width="45" height="4" x="535" y="375" fill="#475569" rx="2"/><rect width="25" height="4" x="535" y="385" fill="#64748b" rx="2"/><rect width="100" height="25" x="450" y="320" fill="#f59e0b" rx="12"/><text x="500" y="337" fill="#fff" font-family="Arial" font-size="14" font-weight="bold" text-anchor="middle">LOGIN</text><ellipse cx="320" cy="380" fill="#e0e7ff" rx="45" ry="70"/><path fill="#c7d2fe" d="M275 340q15-20 45-15 30-5 45 15v60q-15 20-45 25-30-5-45-25Z"/><path fill="none" stroke="#a5b4fc" stroke-width="2" d="M290 340q15-10 30-5 15-5 30 5"/><ellipse cx="280" cy="360" fill="#fb923c" rx="15" ry="25"/><ellipse cx="360" cy="360" fill="#fb923c" rx="15" ry="25"/><ellipse cx="270" cy="380" fill="#fecaca" rx="8" ry="20"/><ellipse cx="370" cy="380" fill="#fecaca" rx="8" ry="20"/><circle cx="265" cy="400" r="8" fill="#fecaca"/><circle cx="375" cy="400" r="8" fill="#fecaca"/><circle cx="320" cy="280" r="35" fill="#fecaca"/><path fill="#1f2937" d="M285 260q5-20 35-15 30-5 35 15t0 40-10 25q-5-10-15-15-10 5-20 0-10 5-15 15-5-5-10-25Z"/><path fill="#374151" d="M295 270q5-20 25-15 20-5 25 15"/><circle cx="310" cy="275" r="2" fill="#1f2937"/><circle cx="330" cy="275" r="2" fill="#1f2937"/><path fill="none" stroke="#1f2937" d="M320 285q5 5 0 10"/><path fill="none" stroke="#1f2937" d="M305 290q15 10 30 0"/><rect width="12" height="40" x="300" y="440" fill="#1f2937" rx="6"/><rect width="12" height="40" x="328" y="440" fill="#1f2937" rx="6"/><ellipse cx="306" cy="485" fill="#1f2937" rx="12" ry="6"/><ellipse cx="334" cy="485" fill="#1f2937" rx="12" ry="6"/><circle cx="450" cy="220" r="50" fill="#c7d2fe" stroke="#8b5cf6" stroke-width="3"/><circle cx="450" cy="205" r="18" fill="#fff"/><path fill="#fff" d="M430 235q20 15 40 0"/><rect width="140" height="25" x="380" y="280" fill="#fff" stroke="#d1d5db" stroke-width="2" rx="12"/><path stroke="#e5e7eb" d="M390 292h120"/><g transform="translate(420 200)"><rect width="20" height="15" y="10" fill="#64748b" rx="2"/><path fill="none" stroke="#64748b" stroke-width="2" d="M3 5h14v10H3z"/><circle cx="10" cy="17" r="2" fill="#f8fafc"/></g></svg>